<?xml version="1.0" encoding="UTF-8"?>
<svg xmlns="http://www.w3.org/2000/svg" xmlns:xlink="http://www.w3.org/1999/xlink" width="200pt" height="60pt" viewBox="0 0 200 60" version="1.1">
<g id="surface1">
<path style=" stroke:none;fill-rule:evenodd;fill:rgb(100%,60%,0%);fill-opacity:1;" d="M 124.074219 46.976562 C 112.453125 55.515625 95.609375 60.070312 81.105469 60.070312 C 60.765625 60.070312 42.457031 52.574219 28.609375 40.105469 C 27.519531 39.125 28.496094 37.789062 29.800781 38.550781 C 44.75 47.21875 63.230469 52.433594 82.324219 52.433594 C 95.199219 52.433594 109.363281 49.78125 122.386719 44.269531 C 124.355469 43.4375 126 45.554688 124.074219 46.976562 "/>
<path style=" stroke:none;fill-rule:evenodd;fill:rgb(100%,60%,0%);fill-opacity:1;" d="M 128.90625 41.46875 C 127.429688 39.574219 119.085938 40.574219 115.34375 41.015625 C 114.203125 41.15625 114.03125 40.164062 115.058594 39.453125 C 121.699219 34.792969 132.597656 36.140625 133.871094 37.703125 C 135.140625 39.273438 133.539062 50.160156 127.296875 55.359375 C 126.339844 56.15625 125.425781 55.730469 125.851562 54.671875 C 127.253906 51.183594 130.398438 43.367188 128.90625 41.46875 "/>
<path style=" stroke:none;fill-rule:evenodd;fill:rgb(0%,0%,0%);fill-opacity:1;" d="M 115.605469 6.558594 L 115.605469 2.03125 C 115.605469 1.34375 116.128906 0.886719 116.753906 0.886719 L 137.101562 0.886719 C 137.753906 0.886719 138.273438 1.355469 138.273438 2.03125 L 138.273438 5.910156 C 138.265625 6.558594 137.71875 7.410156 136.742188 8.753906 L 126.199219 23.757812 C 130.117188 23.660156 134.253906 24.242188 137.804688 26.238281 C 138.605469 26.691406 138.824219 27.351562 138.886719 28 L 138.886719 32.832031 C 138.886719 33.492188 138.152344 34.265625 137.386719 33.867188 C 131.128906 30.59375 122.8125 30.238281 115.890625 33.902344 C 115.1875 34.28125 114.449219 33.519531 114.449219 32.859375 L 114.449219 28.269531 C 114.449219 27.53125 114.457031 26.273438 115.195312 25.15625 L 127.410156 7.695312 L 116.78125 7.695312 C 116.128906 7.695312 115.605469 7.238281 115.605469 6.558594 "/>
<path style=" stroke:none;fill-rule:evenodd;fill:rgb(0%,0%,0%);fill-opacity:1;" d="M 41.386719 34.820312 L 35.199219 34.820312 C 34.605469 34.777344 34.136719 34.335938 34.09375 33.769531 L 34.09375 2.109375 C 34.09375 1.476562 34.625 0.972656 35.285156 0.972656 L 41.058594 0.972656 C 41.65625 0.996094 42.136719 1.457031 42.179688 2.03125 L 42.179688 6.167969 L 42.292969 6.167969 C 43.800781 2.167969 46.628906 0.304688 50.441406 0.304688 C 54.316406 0.304688 56.734375 2.167969 58.476562 6.167969 C 59.976562 2.167969 63.378906 0.304688 67.027344 0.304688 C 69.621094 0.304688 72.457031 1.371094 74.191406 3.765625 C 76.148438 6.429688 75.75 10.300781 75.75 13.691406 L 75.742188 33.675781 C 75.742188 34.308594 75.210938 34.820312 74.546875 34.820312 L 68.367188 34.820312 C 67.75 34.777344 67.253906 34.28125 67.253906 33.675781 L 67.253906 16.894531 C 67.253906 15.558594 67.375 12.226562 67.078125 10.960938 C 66.617188 8.832031 65.234375 8.234375 63.441406 8.234375 C 61.941406 8.234375 60.375 9.230469 59.738281 10.828125 C 59.105469 12.425781 59.164062 15.097656 59.164062 16.894531 L 59.164062 33.675781 C 59.164062 34.308594 58.632812 34.820312 57.972656 34.820312 L 51.792969 34.820312 C 51.164062 34.777344 50.675781 34.28125 50.675781 33.675781 L 50.667969 16.894531 C 50.667969 13.363281 51.25 8.164062 46.855469 8.164062 C 42.40625 8.164062 42.582031 13.230469 42.582031 16.894531 L 42.582031 33.675781 C 42.582031 34.308594 42.050781 34.820312 41.386719 34.820312 "/>
<path style=" stroke:none;fill-rule:evenodd;fill:rgb(0%,0%,0%);fill-opacity:1;" d="M 155.792969 0.304688 C 164.976562 0.304688 169.949219 8.164062 169.949219 18.160156 C 169.949219 27.816406 164.453125 35.480469 155.792969 35.480469 C 146.773438 35.480469 141.863281 27.617188 141.863281 17.824219 C 141.863281 7.964844 146.832031 0.304688 155.792969 0.304688 M 155.84375 6.769531 C 151.28125 6.769531 150.996094 12.964844 150.996094 16.824219 C 150.996094 20.695312 150.933594 28.953125 155.792969 28.953125 C 160.589844 28.953125 160.816406 22.292969 160.816406 18.230469 C 160.816406 15.558594 160.703125 12.363281 159.890625 9.832031 C 159.195312 7.628906 157.8125 6.769531 155.84375 6.769531 "/>
<path style=" stroke:none;fill-rule:evenodd;fill:rgb(0%,0%,0%);fill-opacity:1;" d="M 181.855469 34.820312 L 175.691406 34.820312 C 175.074219 34.777344 174.578125 34.28125 174.578125 33.675781 L 174.570312 2.003906 C 174.621094 1.421875 175.136719 0.972656 175.761719 0.972656 L 181.5 0.972656 C 182.039062 0.996094 182.484375 1.363281 182.605469 1.855469 L 182.605469 6.699219 L 182.71875 6.699219 C 184.453125 2.367188 186.878906 0.304688 191.15625 0.304688 C 193.933594 0.304688 196.640625 1.300781 198.378906 4.035156 C 200 6.570312 200 10.828125 200 13.890625 L 200 33.824219 C 199.929688 34.378906 199.417969 34.820312 198.808594 34.820312 L 192.601562 34.820312 C 192.035156 34.777344 191.5625 34.359375 191.503906 33.824219 L 191.503906 16.625 C 191.503906 13.164062 191.902344 8.09375 187.628906 8.09375 C 186.121094 8.09375 184.738281 9.101562 184.050781 10.628906 C 183.179688 12.5625 183.066406 14.492188 183.066406 16.625 L 183.066406 33.675781 C 183.058594 34.308594 182.519531 34.820312 181.855469 34.820312 "/>
<path style=" stroke:none;fill-rule:evenodd;fill:rgb(0%,0%,0%);fill-opacity:1;" d="M 99.386719 19.695312 C 99.386719 22.101562 99.445312 24.105469 98.226562 26.238281 C 97.246094 27.972656 95.675781 29.042969 93.945312 29.042969 C 91.570312 29.042969 90.175781 27.238281 90.175781 24.574219 C 90.175781 19.316406 94.902344 18.359375 99.386719 18.359375 L 99.386719 19.695312 M 105.628906 34.734375 C 105.21875 35.097656 104.628906 35.125 104.164062 34.882812 C 102.109375 33.179688 101.738281 32.390625 100.613281 30.769531 C 97.21875 34.222656 94.808594 35.253906 90.410156 35.253906 C 85.195312 35.253906 81.148438 32.050781 81.148438 25.640625 C 81.148438 20.632812 83.863281 17.222656 87.746094 15.558594 C 91.105469 14.082031 95.800781 13.824219 99.386719 13.414062 L 99.386719 12.617188 C 99.386719 11.148438 99.5 9.414062 98.628906 8.148438 C 97.878906 7.011719 96.433594 6.542969 95.15625 6.542969 C 92.796875 6.542969 90.699219 7.75 90.183594 10.246094 C 90.078125 10.804688 89.671875 11.347656 89.105469 11.375 L 83.105469 10.734375 C 82.601562 10.621094 82.035156 10.210938 82.183594 9.441406 C 83.558594 2.1875 90.140625 0 96.027344 0 C 99.039062 0 102.972656 0.796875 105.351562 3.070312 C 108.363281 5.875 108.074219 9.613281 108.074219 13.683594 L 108.074219 23.296875 C 108.074219 26.1875 109.277344 27.453125 110.40625 29.015625 C 110.800781 29.570312 110.886719 30.238281 110.382812 30.65625 C 109.121094 31.707031 106.875 33.65625 105.636719 34.75 L 105.628906 34.734375 "/>
<path style=" stroke:none;fill-rule:evenodd;fill:rgb(0%,0%,0%);fill-opacity:1;" d="M 18.238281 19.695312 C 18.238281 22.101562 18.300781 24.105469 17.082031 26.238281 C 16.097656 27.972656 14.539062 29.042969 12.796875 29.042969 C 10.421875 29.042969 9.035156 27.238281 9.035156 24.574219 C 9.035156 19.316406 13.765625 18.359375 18.238281 18.359375 L 18.238281 19.695312 M 24.480469 34.734375 C 24.070312 35.097656 23.480469 35.125 23.019531 34.882812 C 20.964844 33.179688 20.597656 32.390625 19.464844 30.769531 C 16.070312 34.222656 13.667969 35.253906 9.261719 35.253906 C 4.058594 35.253906 0 32.050781 0 25.640625 C 0 20.632812 2.726562 17.222656 6.597656 15.558594 C 9.960938 14.082031 14.652344 13.824219 18.238281 13.414062 L 18.238281 12.617188 C 18.238281 11.148438 18.351562 9.414062 17.488281 8.148438 C 16.734375 7.011719 15.289062 6.542969 14.015625 6.542969 C 11.65625 6.542969 9.550781 7.75 9.035156 10.246094 C 8.933594 10.804688 8.523438 11.347656 7.964844 11.375 L 1.957031 10.734375 C 1.453125 10.621094 0.898438 10.210938 1.035156 9.441406 C 2.421875 2.1875 8.992188 0 14.878906 0 C 17.890625 0 21.824219 0.796875 24.203125 3.070312 C 27.214844 5.875 26.925781 9.613281 26.925781 13.683594 L 26.925781 23.296875 C 26.925781 26.1875 28.128906 27.453125 29.261719 29.015625 C 29.660156 29.570312 29.746094 30.238281 29.242188 30.65625 C 27.980469 31.707031 25.734375 33.65625 24.5 34.75 L 24.480469 34.734375 "/>
</g>
</svg>
