<?xml version="1.0" encoding="UTF-8"?>
<svg xmlns="http://www.w3.org/2000/svg" xmlns:xlink="http://www.w3.org/1999/xlink" width="200pt" height="200pt" viewBox="0 0 200 200" version="1.1">
<g id="surface1">
<path style=" stroke:none;fill-rule:nonzero;fill:rgb(0%,0%,0%);fill-opacity:1;" d="M 109.097656 39.21875 C 105.683594 40.425781 103.570312 44.363281 103.789062 49.070312 C 103.976562 53.066406 106.085938 56.753906 109.128906 58.300781 C 114.6875 61.121094 120.496094 56.691406 120.527344 49.628906 C 120.558594 44.796875 117.703125 40.304688 113.851562 39.1875 C 111.957031 38.628906 110.808594 38.628906 109.097656 39.21875 Z M 110.527344 41.109375 C 111.460938 42.039062 112.113281 43.617188 112.113281 44.886719 C 112.113281 45.847656 110.15625 48.390625 109.222656 48.699219 C 108.136719 49.007812 105.960938 48.976562 105.746094 48.636719 C 105.621094 48.449219 105.433594 48.390625 105.28125 48.480469 C 104.8125 48.761719 104.285156 46.871094 104.503906 45.664062 C 104.84375 43.773438 105.496094 42.566406 106.894531 41.386719 C 108.445312 40.054688 109.378906 39.992188 110.527344 41.109375 Z M 110.527344 41.109375 "/>
<path style=" stroke:none;fill-rule:nonzero;fill:rgb(0%,0%,0%);fill-opacity:1;" d="M 76.554688 42.441406 C 76.644531 42.597656 76.957031 42.75 77.203125 42.75 C 77.546875 42.75 77.609375 42.9375 77.484375 43.371094 C 77.359375 43.742188 77.421875 43.988281 77.609375 43.988281 C 77.855469 43.988281 77.855469 44.207031 77.609375 44.671875 C 77.390625 45.074219 77.144531 45.601562 77.019531 45.816406 C 76.613281 46.746094 75.15625 47.492188 73.570312 47.644531 L 71.957031 47.800781 L 72.144531 46.4375 L 72.328125 45.074219 L 71.707031 46.777344 C 69.128906 53.808594 77.175781 58.734375 81.179688 52.570312 C 83.914062 48.328125 81.769531 42.132812 77.546875 42.132812 C 76.832031 42.132812 76.429688 42.253906 76.554688 42.441406 Z M 76.554688 42.441406 "/>
<path style=" stroke:none;fill-rule:nonzero;fill:rgb(0%,0%,0%);fill-opacity:1;" d="M 81.644531 57.34375 C 75.1875 58.023438 68.355469 60.472656 63.757812 63.722656 C 59.441406 66.789062 55.960938 71.714844 54.78125 76.519531 C 54.066406 79.304688 54.347656 85.410156 55.28125 88.445312 C 57.203125 94.484375 61.054688 100.402344 66.242188 105.171875 C 67.421875 106.289062 68.507812 107.1875 68.632812 107.1875 C 68.757812 107.1875 68.945312 105.824219 69.066406 104.152344 C 69.566406 97.273438 70.21875 87.359375 70.652344 80.234375 C 70.902344 76.054688 71.179688 71.59375 71.273438 70.320312 C 71.398438 68.464844 71.367188 68.183594 71.117188 68.988281 C 70.933594 69.546875 70.652344 70.011719 70.496094 70.011719 C 70.3125 70.011719 70.15625 70.476562 70.15625 71.003906 C 70.125 71.59375 70.0625 71.777344 69.96875 71.46875 C 69.8125 70.910156 69.8125 70.910156 69.410156 71.46875 C 69.191406 71.777344 68.074219 72.492188 66.957031 73.078125 C 65.15625 73.976562 64.566406 74.101562 61.800781 74.226562 C 59.597656 74.320312 58.695312 74.257812 58.695312 74.007812 C 58.695312 73.761719 58.570312 73.761719 58.230469 74.039062 C 56.769531 75.246094 58.726562 70.664062 60.589844 68.496094 C 62.050781 66.820312 65.15625 64.21875 67.019531 63.136719 C 68.632812 62.238281 73.355469 60.410156 74.128906 60.410156 C 74.78125 60.410156 74.597656 60.964844 73.851562 61.214844 C 73.261719 61.398438 73.261719 61.429688 73.695312 61.710938 C 74.285156 62.019531 74.410156 63.042969 73.914062 63.351562 C 73.757812 63.445312 73.445312 63.847656 73.261719 64.21875 L 72.886719 64.902344 L 73.632812 64.25 C 75.339844 62.730469 77.390625 62.453125 79.097656 63.507812 C 80.371094 64.28125 81.179688 65.890625 84.007812 73.234375 C 87.886719 83.394531 88.507812 84.945312 89.9375 87.949219 L 91.304688 90.832031 L 91.304688 95.910156 C 91.304688 98.914062 91.179688 100.992188 90.992188 100.992188 C 90.28125 100.992188 86.460938 94.363281 84.535156 89.839844 C 83.851562 88.226562 82.515625 84.664062 81.554688 81.96875 C 80.589844 79.242188 79.6875 76.859375 79.535156 76.609375 C 78.914062 75.496094 78.632812 77.292969 78.476562 83.644531 C 78.386719 87.296875 78.136719 93.371094 77.949219 97.117188 C 77.734375 100.867188 77.578125 106.101562 77.546875 108.707031 L 77.484375 113.507812 L 80.992188 115.273438 C 89.503906 119.578125 101.460938 122.675781 109.410156 122.675781 L 111.242188 122.675781 L 111.054688 119.796875 C 110.960938 118.246094 110.714844 114.003906 110.558594 110.441406 C 110.371094 106.847656 109.9375 100.527344 109.597656 96.34375 C 109.253906 92.164062 108.789062 86.398438 108.539062 83.550781 C 108.324219 80.699219 108.074219 78.253906 107.949219 78.160156 C 107.796875 78.003906 105.589844 82.433594 105.589844 82.898438 C 105.589844 83.210938 102.546875 90.398438 101.242188 93.152344 C 99.222656 97.398438 96.707031 100.710938 94.628906 101.828125 C 92.917969 102.695312 92.855469 102.476562 92.855469 96.25 C 92.855469 90.644531 92.855469 90.550781 93.664062 89.5 C 94.6875 88.105469 96.304688 84.632812 97.980469 80.234375 C 102.113281 69.269531 105.125 64.808594 109.222656 63.628906 C 113.570312 62.359375 118.417969 64.683594 120.621094 69.019531 C 122.265625 72.273438 122.949219 75.308594 125.464844 90.921875 C 130.339844 120.816406 130 118.960938 130.496094 118.960938 C 130.714844 118.960938 132.175781 118.183594 133.757812 117.253906 C 137.359375 115.117188 140.960938 111.554688 142.765625 108.394531 C 145.339844 103.902344 146.085938 98.015625 144.75 92.597656 C 143.914062 89.28125 141.148438 83.675781 138.726562 80.484375 C 126.894531 64.808594 102.886719 55.082031 81.644531 57.34375 Z M 81.644531 57.34375 "/>
<path style=" stroke:none;fill-rule:nonzero;fill:rgb(0%,0%,0%);fill-opacity:1;" d="M 6.023438 126.796875 C 5.933594 127.042969 5.902344 128.40625 5.960938 129.832031 L 6.054688 132.433594 L 9.6875 132.527344 L 13.324219 132.621094 L 13.507812 131.597656 C 13.601562 131.039062 13.664062 129.679688 13.601562 128.5625 L 13.507812 126.550781 L 9.84375 126.457031 C 6.988281 126.394531 6.148438 126.457031 6.023438 126.796875 Z M 6.023438 126.796875 "/>
<path style=" stroke:none;fill-rule:nonzero;fill:rgb(0%,0%,0%);fill-opacity:1;" d="M 56.523438 131.753906 C 56.523438 134.726562 56.460938 137.207031 56.367188 137.296875 C 56.273438 137.359375 55.621094 136.863281 54.875 136.183594 C 52.515625 133.921875 48.632812 133.425781 45.621094 135.007812 C 43.507812 136.121094 41.273438 138.941406 40.496094 141.480469 C 39.75 143.960938 39.71875 149.472656 40.464844 151.796875 C 41.429688 154.832031 43.136719 157.03125 45.464844 158.210938 C 48.664062 159.851562 52.671875 159.355469 54.96875 157.0625 C 55.652344 156.382812 56.273438 155.824219 56.367188 155.824219 C 56.460938 155.824219 56.523438 156.445312 56.523438 157.21875 L 56.523438 158.644531 L 60.1875 158.550781 L 63.820312 158.457031 L 63.820312 126.550781 L 60.1875 126.457031 L 56.523438 126.363281 Z M 54.347656 140.921875 C 55.902344 142.070312 56.367188 143.339844 56.367188 146.53125 C 56.367188 148.882812 56.242188 149.722656 55.714844 150.679688 C 54.597656 152.851562 52.050781 153.625 50.09375 152.417969 C 48.726562 151.609375 48.167969 150.652344 47.796875 148.421875 C 47.359375 145.941406 47.824219 143.121094 48.914062 141.699219 C 50.21875 139.992188 52.640625 139.652344 54.347656 140.921875 Z M 54.347656 140.921875 "/>
<path style=" stroke:none;fill-rule:nonzero;fill:rgb(0%,0%,0%);fill-opacity:1;" d="M 66.988281 126.578125 C 66.863281 126.703125 66.769531 128.097656 66.769531 129.707031 L 66.769531 132.589844 L 74.253906 132.589844 L 74.160156 129.554688 L 74.066406 126.550781 L 70.621094 126.457031 C 68.757812 126.425781 67.113281 126.488281 66.988281 126.578125 Z M 66.988281 126.578125 "/>
<path style=" stroke:none;fill-rule:nonzero;fill:rgb(0%,0%,0%);fill-opacity:1;" d="M 180.527344 128.191406 L 177.019531 128.285156 L 177.019531 131.503906 C 177.019531 135.007812 176.957031 135.128906 175.371094 134.417969 C 174.78125 134.140625 174.222656 134.199219 172.855469 134.574219 C 171.242188 135.039062 169.875 136.089844 168.324219 138.042969 C 167.886719 138.570312 167.855469 138.476562 167.765625 136.679688 L 167.671875 134.726562 L 164.191406 134.820312 L 160.714844 134.914062 L 160.714844 158.457031 L 167.855469 158.457031 L 168.042969 151.953125 C 168.167969 146.53125 168.292969 145.261719 168.757812 144.269531 C 169.503906 142.75 170.777344 142.101562 173.292969 141.882812 L 175.3125 141.730469 L 175.464844 140.644531 C 175.589844 139.808594 175.777344 139.558594 176.242188 139.558594 C 176.832031 139.558594 176.863281 139.839844 177.050781 146.21875 C 177.144531 149.875 177.328125 153.4375 177.484375 154.121094 C 178.199219 157.777344 179.9375 158.984375 184.316406 158.953125 C 185.714844 158.953125 187.265625 158.796875 187.703125 158.613281 C 188.507812 158.300781 188.539062 158.242188 188.445312 156.070312 L 188.355469 153.808594 L 187.175781 153.625 C 184.875 153.253906 184.8125 153.035156 184.78125 146.21875 C 184.75 142.90625 184.75 139.992188 184.75 139.777344 C 184.78125 139.527344 185.371094 139.40625 186.644531 139.40625 L 188.539062 139.40625 L 188.445312 137.144531 L 188.355469 134.914062 L 186.492188 134.757812 L 184.660156 134.601562 L 184.75 131.628906 C 184.8125 129.460938 184.71875 128.59375 184.410156 128.375 C 184.191406 128.222656 182.421875 128.128906 180.527344 128.191406 Z M 180.527344 128.191406 "/>
<path style=" stroke:none;fill-rule:nonzero;fill:rgb(0%,0%,0%);fill-opacity:1;" d="M 27.855469 134.695312 C 27.050781 134.976562 25.839844 135.75 25.1875 136.371094 C 24.535156 137.019531 23.914062 137.546875 23.820312 137.546875 C 23.726562 137.546875 23.601562 136.957031 23.539062 136.214844 L 23.445312 134.914062 L 20.0625 134.820312 C 17.546875 134.757812 16.582031 134.851562 16.398438 135.128906 C 16.117188 135.59375 16.054688 157.371094 16.335938 158.117188 C 16.492188 158.519531 17.113281 158.613281 20.0625 158.613281 C 22.671875 158.613281 23.601562 158.519531 23.601562 158.210938 C 23.632812 158.023438 23.601562 155.050781 23.601562 151.640625 C 23.570312 144.578125 23.882812 142.597656 25.15625 141.140625 C 25.933594 140.304688 26.242188 140.179688 27.609375 140.179688 C 28.820312 140.179688 29.347656 140.335938 29.875 140.890625 C 30.589844 141.574219 30.589844 141.730469 30.683594 149.691406 C 30.746094 154.894531 30.902344 157.960938 31.117188 158.210938 C 31.335938 158.488281 32.421875 158.613281 34.8125 158.613281 C 38.167969 158.613281 38.199219 158.613281 38.386719 157.835938 C 38.476562 157.402344 38.507812 153.128906 38.445312 148.296875 C 38.324219 140.335938 38.261719 139.4375 37.703125 138.167969 C 36.148438 134.726562 31.925781 133.242188 27.855469 134.695312 Z M 27.855469 134.695312 "/>
<path style=" stroke:none;fill-rule:nonzero;fill:rgb(0%,0%,0%);fill-opacity:1;" d="M 83.851562 134.449219 C 81.769531 134.914062 79.285156 136.246094 78.386719 137.390625 C 77.453125 138.601562 76.304688 141.480469 76.554688 141.914062 C 76.675781 142.070312 78.199219 142.191406 79.96875 142.191406 C 83.199219 142.191406 83.199219 142.191406 83.601562 141.324219 C 84.78125 138.847656 89.8125 138.910156 90.0625 141.417969 C 90.25 143.089844 89.597656 143.464844 84.222656 144.484375 C 78.261719 145.664062 76.242188 147.335938 75.871094 151.457031 C 75.433594 156.070312 78.261719 159.199219 82.824219 159.230469 C 85.03125 159.230469 87.703125 158.363281 89.097656 157.1875 C 90.21875 156.257812 90.25 156.257812 90.527344 157.28125 C 90.621094 157.746094 90.902344 158.242188 91.085938 158.363281 C 91.675781 158.734375 98.074219 158.675781 98.292969 158.300781 C 98.417969 158.117188 98.230469 157.589844 97.917969 157.125 C 97.421875 156.382812 97.328125 155.359375 97.203125 147.925781 C 97.050781 140.023438 97.019531 139.5 96.367188 138.257812 C 95 135.71875 92.328125 134.449219 88.042969 134.261719 C 86.523438 134.199219 84.628906 134.292969 83.851562 134.449219 Z M 90.0625 149.503906 C 90.0625 151.890625 89.378906 153.160156 87.703125 153.839844 C 85.933594 154.585938 84.628906 154.398438 83.726562 153.316406 C 82.144531 151.457031 83.042969 149.378906 85.746094 148.730469 C 86.492188 148.542969 87.671875 148.203125 88.355469 147.957031 C 89.039062 147.738281 89.6875 147.523438 89.84375 147.492188 C 89.96875 147.492188 90.0625 148.390625 90.0625 149.503906 Z M 90.0625 149.503906 "/>
<path style=" stroke:none;fill-rule:nonzero;fill:rgb(0%,0%,0%);fill-opacity:1;" d="M 111.800781 134.417969 C 110.3125 134.882812 109.066406 135.65625 108.292969 136.617188 C 107.855469 137.113281 107.421875 137.546875 107.328125 137.546875 C 107.234375 137.546875 107.144531 136.957031 107.082031 136.214844 L 106.988281 134.914062 L 99.84375 134.914062 L 99.75 146.5 C 99.6875 155.578125 99.78125 158.148438 100.0625 158.363281 C 100.28125 158.488281 101.957031 158.613281 103.789062 158.613281 L 107.082031 158.613281 L 107.203125 150.929688 C 107.296875 144.640625 107.390625 143.0625 107.824219 142.132812 C 108.976562 139.589844 112.296875 139.34375 113.601562 141.699219 C 114.039062 142.503906 114.160156 143.960938 114.285156 150.558594 L 114.441406 158.457031 L 120.777344 158.644531 L 120.871094 150.804688 C 120.960938 143.554688 121.023438 142.875 121.613281 141.882812 C 121.957031 141.292969 122.640625 140.613281 123.105469 140.398438 C 124.597656 139.652344 126.863281 140.488281 127.421875 141.945312 C 127.515625 142.222656 127.640625 145.941406 127.671875 150.1875 C 127.703125 154.429688 127.824219 158.085938 127.949219 158.269531 C 128.074219 158.519531 129.253906 158.613281 131.554688 158.550781 L 134.9375 158.457031 L 135.03125 149.78125 C 135.09375 144.019531 135 140.550781 134.78125 139.4375 C 133.570312 133.890625 126.023438 132.3125 121.769531 136.742188 L 120.714844 137.855469 L 119.628906 136.617188 C 119.039062 135.90625 118.167969 135.160156 117.640625 134.882812 C 116.582031 134.324219 112.917969 134.046875 111.800781 134.417969 Z M 111.800781 134.417969 "/>
<path style=" stroke:none;fill-rule:nonzero;fill:rgb(0%,0%,0%);fill-opacity:1;" d="M 144.253906 134.542969 C 141.957031 135.160156 140.28125 136.121094 139.039062 137.546875 C 137.949219 138.816406 137.019531 141.234375 137.421875 141.851562 C 137.546875 142.070312 138.851562 142.191406 140.777344 142.191406 L 143.945312 142.164062 L 144.566406 141.203125 C 146.117188 138.722656 150.933594 139.09375 150.933594 141.667969 C 150.933594 142.875 149.9375 143.433594 146.242188 144.207031 C 141.273438 145.261719 140.621094 145.476562 139.191406 146.53125 C 137.453125 147.769531 136.894531 149.007812 136.707031 151.828125 C 136.613281 153.71875 136.707031 154.460938 137.203125 155.578125 C 138.355469 158.179688 140.871094 159.417969 144.535156 159.140625 C 146.769531 158.984375 148.105469 158.488281 149.875 157.15625 C 151.054688 156.257812 151.242188 156.257812 151.242188 157.15625 C 151.242188 158.425781 151.769531 158.613281 155.28125 158.613281 C 159.191406 158.613281 159.628906 158.425781 158.820312 157.1875 C 158.292969 156.414062 158.199219 155.390625 158.042969 148.234375 C 157.855469 139.5 157.671875 138.507812 156.117188 136.894531 C 154.535156 135.222656 152.234375 134.417969 148.820312 134.261719 C 146.957031 134.199219 145.21875 134.292969 144.253906 134.542969 Z M 150.933594 149.164062 C 150.933594 150.125 150.714844 151.332031 150.402344 151.984375 C 149.441406 153.964844 146.367188 154.925781 144.8125 153.71875 C 143.445312 152.695312 143.355469 150.402344 144.660156 149.441406 C 144.9375 149.226562 146.179688 148.824219 147.359375 148.511719 C 148.570312 148.234375 149.75 147.894531 150 147.738281 C 150.839844 147.273438 150.933594 147.429688 150.933594 149.164062 Z M 150.933594 149.164062 "/>
<path style=" stroke:none;fill-rule:nonzero;fill:rgb(0%,0%,0%);fill-opacity:1;" d="M 6.054688 135.160156 C 5.960938 135.347656 5.933594 140.707031 5.960938 146.996094 L 6.054688 158.457031 L 9.597656 158.550781 C 12.175781 158.613281 13.230469 158.519531 13.386719 158.242188 C 13.664062 157.808594 13.757812 135.964844 13.476562 135.253906 C 13.324219 134.851562 12.671875 134.757812 9.75 134.757812 C 7.175781 134.757812 6.148438 134.851562 6.054688 135.160156 Z M 6.054688 135.160156 "/>
<path style=" stroke:none;fill-rule:nonzero;fill:rgb(0%,0%,0%);fill-opacity:1;" d="M 66.925781 135.128906 C 66.832031 135.347656 66.800781 140.707031 66.832031 146.996094 L 66.925781 158.457031 L 74.066406 158.457031 L 74.066406 134.914062 L 70.558594 134.820312 C 67.949219 134.757812 67.019531 134.851562 66.925781 135.128906 Z M 66.925781 135.128906 "/>
<path style=" stroke:none;fill-rule:nonzero;fill:rgb(0%,0%,0%);fill-opacity:1;" d="M 0 199.8125 C 0 200.03125 33.539062 200.125 100 200.125 C 166.460938 200.125 200 200.03125 200 199.8125 C 200 199.597656 166.460938 199.503906 100 199.503906 C 33.539062 199.503906 0 199.597656 0 199.8125 Z M 0 199.8125 "/>
</g>
</svg>
